<?xml version="1.0" standalone="no"?>
<svg xmlns:xlink="http://www.w3.org/1999/xlink" id="wave" style="transform:rotate(180deg); transition: 0.3s" viewBox="0 0 1440 320" version="1.1" xmlns="http://www.w3.org/2000/svg"><defs><linearGradient id="sw-gradient-0" x1="0" x2="0" y1="1" y2="0"><stop stop-color="rgba(89, 111, 7, 1)" offset="0%"/><stop stop-color="rgba(147, 173, 24, 1)" offset="100%"/></linearGradient></defs><path style="transform:translate(0, 0px); opacity:1" fill="url(#sw-gradient-0)" d="M0,224L40,218.7C80,213,160,203,240,213.3C320,224,400,256,480,261.3C560,267,640,245,720,202.7C800,160,880,96,960,80C1040,64,1120,96,1200,133.3C1280,171,1360,213,1440,240C1520,267,1600,277,1680,282.7C1760,288,1840,288,1920,256C2000,224,2080,160,2160,133.3C2240,107,2320,117,2400,101.3C2480,85,2560,43,2640,64C2720,85,2800,171,2880,176C2960,181,3040,107,3120,90.7C3200,75,3280,117,3360,117.3C3440,117,3520,75,3600,53.3C3680,32,3760,32,3840,32C3920,32,4000,32,4080,69.3C4160,107,4240,181,4320,192C4400,203,4480,149,4560,133.3C4640,117,4720,139,4800,149.3C4880,160,4960,160,5040,170.7C5120,181,5200,203,5280,186.7C5360,171,5440,117,5520,122.7C5600,128,5680,192,5720,224L5760,256L5760,320L5720,320C5680,320,5600,320,5520,320C5440,320,5360,320,5280,320C5200,320,5120,320,5040,320C4960,320,4880,320,4800,320C4720,320,4640,320,4560,320C4480,320,4400,320,4320,320C4240,320,4160,320,4080,320C4000,320,3920,320,3840,320C3760,320,3680,320,3600,320C3520,320,3440,320,3360,320C3280,320,3200,320,3120,320C3040,320,2960,320,2880,320C2800,320,2720,320,2640,320C2560,320,2480,320,2400,320C2320,320,2240,320,2160,320C2080,320,2000,320,1920,320C1840,320,1760,320,1680,320C1600,320,1520,320,1440,320C1360,320,1280,320,1200,320C1120,320,1040,320,960,320C880,320,800,320,720,320C640,320,560,320,480,320C400,320,320,320,240,320C160,320,80,320,40,320L0,320Z"/></svg>