<?xml version="1.0" standalone="no"?>
<svg xmlns:xlink="http://www.w3.org/1999/xlink" id="wave" style="transform:rotate(0deg); transition: 0.3s" viewBox="0 0 1440 490" version="1.1" xmlns="http://www.w3.org/2000/svg"><defs><linearGradient id="sw-gradient-0" x1="0" x2="0" y1="1" y2="0"><stop stop-color="rgba(89, 111, 7, 1)" offset="0%"/><stop stop-color="rgba(147, 173, 24, 1)" offset="100%"/></linearGradient></defs><path style="transform:translate(0, 0px); opacity:1" fill="url(#sw-gradient-0)" d="M0,343L60,334.8C120,327,240,310,360,326.7C480,343,600,392,720,400.2C840,408,960,376,1080,310.3C1200,245,1320,147,1440,122.5C1560,98,1680,147,1800,204.2C1920,261,2040,327,2160,367.5C2280,408,2400,425,2520,432.8C2640,441,2760,441,2880,392C3000,343,3120,245,3240,204.2C3360,163,3480,180,3600,155.2C3720,131,3840,65,3960,98C4080,131,4200,261,4320,269.5C4440,278,4560,163,4680,138.8C4800,114,4920,180,5040,179.7C5160,180,5280,114,5400,81.7C5520,49,5640,49,5760,49C5880,49,6000,49,6120,106.2C6240,163,6360,278,6480,294C6600,310,6720,229,6840,204.2C6960,180,7080,212,7200,228.7C7320,245,7440,245,7560,261.3C7680,278,7800,310,7920,285.8C8040,261,8160,180,8280,187.8C8400,196,8520,294,8580,343L8640,392L8640,490L8580,490C8520,490,8400,490,8280,490C8160,490,8040,490,7920,490C7800,490,7680,490,7560,490C7440,490,7320,490,7200,490C7080,490,6960,490,6840,490C6720,490,6600,490,6480,490C6360,490,6240,490,6120,490C6000,490,5880,490,5760,490C5640,490,5520,490,5400,490C5280,490,5160,490,5040,490C4920,490,4800,490,4680,490C4560,490,4440,490,4320,490C4200,490,4080,490,3960,490C3840,490,3720,490,3600,490C3480,490,3360,490,3240,490C3120,490,3000,490,2880,490C2760,490,2640,490,2520,490C2400,490,2280,490,2160,490C2040,490,1920,490,1800,490C1680,490,1560,490,1440,490C1320,490,1200,490,1080,490C960,490,840,490,720,490C600,490,480,490,360,490C240,490,120,490,60,490L0,490Z"/></svg>