<?xml version="1.0" standalone="no"?>
<svg xmlns:xlink="http://www.w3.org/1999/xlink" id="wave" style="transform:rotate(0deg); transition: 0.3s" viewBox="0 0 1440 150" version="1.1" xmlns="http://www.w3.org/2000/svg"><defs><linearGradient id="sw-gradient-0" x1="0" x2="0" y1="1" y2="0"><stop stop-color="rgba(206, 213, 189, 1)" offset="0%"/><stop stop-color="rgba(147, 173, 24, 1)" offset="100%"/></linearGradient></defs><path style="transform:translate(0, 0px); opacity:1" fill="url(#sw-gradient-0)" d="M0,45L34.3,40C68.6,35,137,25,206,22.5C274.3,20,343,25,411,45C480,65,549,100,617,100C685.7,100,754,65,823,52.5C891.4,40,960,50,1029,45C1097.1,40,1166,20,1234,25C1302.9,30,1371,60,1440,82.5C1508.6,105,1577,120,1646,117.5C1714.3,115,1783,95,1851,85C1920,75,1989,75,2057,67.5C2125.7,60,2194,45,2263,50C2331.4,55,2400,80,2469,82.5C2537.1,85,2606,65,2674,47.5C2742.9,30,2811,15,2880,20C2948.6,25,3017,50,3086,60C3154.3,70,3223,65,3291,67.5C3360,70,3429,80,3497,82.5C3565.7,85,3634,80,3703,82.5C3771.4,85,3840,95,3909,82.5C3977.1,70,4046,35,4114,22.5C4182.9,10,4251,20,4320,35C4388.6,50,4457,70,4526,70C4594.3,70,4663,50,4731,55C4800,60,4869,90,4903,105L4937.1,120L4937.1,150L4902.9,150C4868.6,150,4800,150,4731,150C4662.9,150,4594,150,4526,150C4457.1,150,4389,150,4320,150C4251.4,150,4183,150,4114,150C4045.7,150,3977,150,3909,150C3840,150,3771,150,3703,150C3634.3,150,3566,150,3497,150C3428.6,150,3360,150,3291,150C3222.9,150,3154,150,3086,150C3017.1,150,2949,150,2880,150C2811.4,150,2743,150,2674,150C2605.7,150,2537,150,2469,150C2400,150,2331,150,2263,150C2194.3,150,2126,150,2057,150C1988.6,150,1920,150,1851,150C1782.9,150,1714,150,1646,150C1577.1,150,1509,150,1440,150C1371.4,150,1303,150,1234,150C1165.7,150,1097,150,1029,150C960,150,891,150,823,150C754.3,150,686,150,617,150C548.6,150,480,150,411,150C342.9,150,274,150,206,150C137.1,150,69,150,34,150L0,150Z"/></svg>