<?xml version="1.0" standalone="no"?>
<svg xmlns:xlink="http://www.w3.org/1999/xlink" id="wave" style="transform:rotate(0deg); transition: 0.3s" viewBox="0 0 1440 490" version="1.1" xmlns="http://www.w3.org/2000/svg"><defs><linearGradient id="sw-gradient-0" x1="0" x2="0" y1="1" y2="0"><stop stop-color="rgba(89, 111, 7, 1)" offset="0%"/><stop stop-color="rgba(147, 173, 24, 1)" offset="100%"/></linearGradient></defs><path style="transform:translate(0, 0px); opacity:1" fill="url(#sw-gradient-0)" d="M0,147L80,130.7C160,114,320,82,480,73.5C640,65,800,82,960,147C1120,212,1280,327,1440,326.7C1600,327,1760,212,1920,171.5C2080,131,2240,163,2400,147C2560,131,2720,65,2880,81.7C3040,98,3200,196,3360,269.5C3520,343,3680,392,3840,383.8C4000,376,4160,310,4320,277.7C4480,245,4640,245,4800,220.5C4960,196,5120,147,5280,163.3C5440,180,5600,261,5760,269.5C5920,278,6080,212,6240,155.2C6400,98,6560,49,6720,65.3C6880,82,7040,163,7200,196C7360,229,7520,212,7680,220.5C7840,229,8000,261,8160,269.5C8320,278,8480,261,8640,269.5C8800,278,8960,310,9120,269.5C9280,229,9440,114,9600,73.5C9760,33,9920,65,10080,114.3C10240,163,10400,229,10560,228.7C10720,229,10880,163,11040,179.7C11200,196,11360,294,11440,343L11520,392L11520,490L11440,490C11360,490,11200,490,11040,490C10880,490,10720,490,10560,490C10400,490,10240,490,10080,490C9920,490,9760,490,9600,490C9440,490,9280,490,9120,490C8960,490,8800,490,8640,490C8480,490,8320,490,8160,490C8000,490,7840,490,7680,490C7520,490,7360,490,7200,490C7040,490,6880,490,6720,490C6560,490,6400,490,6240,490C6080,490,5920,490,5760,490C5600,490,5440,490,5280,490C5120,490,4960,490,4800,490C4640,490,4480,490,4320,490C4160,490,4000,490,3840,490C3680,490,3520,490,3360,490C3200,490,3040,490,2880,490C2720,490,2560,490,2400,490C2240,490,2080,490,1920,490C1760,490,1600,490,1440,490C1280,490,1120,490,960,490C800,490,640,490,480,490C320,490,160,490,80,490L0,490Z"/></svg>