<?xml version="1.0" standalone="no"?>
<svg xmlns:xlink="http://www.w3.org/1999/xlink" id="wave" style="transform:rotate(0deg); transition: 0.3s" viewBox="0 0 1440 280" version="1.1" xmlns="http://www.w3.org/2000/svg"><defs><linearGradient id="sw-gradient-0" x1="0" x2="0" y1="1" y2="0"><stop stop-color="rgba(89, 111, 7, 1)" offset="0%"/><stop stop-color="rgba(147, 173, 24, 1)" offset="100%"/></linearGradient></defs><path style="transform:translate(0, 0px); opacity:1" fill="url(#sw-gradient-0)" d="M0,84L80,74.7C160,65,320,47,480,42C640,37,800,47,960,84C1120,121,1280,187,1440,186.7C1600,187,1760,121,1920,98C2080,75,2240,93,2400,84C2560,75,2720,37,2880,46.7C3040,56,3200,112,3360,154C3520,196,3680,224,3840,219.3C4000,215,4160,177,4320,158.7C4480,140,4640,140,4800,126C4960,112,5120,84,5280,93.3C5440,103,5600,149,5760,154C5920,159,6080,121,6240,88.7C6400,56,6560,28,6720,37.3C6880,47,7040,93,7200,112C7360,131,7520,121,7680,126C7840,131,8000,149,8160,154C8320,159,8480,149,8640,154C8800,159,8960,177,9120,154C9280,131,9440,65,9600,42C9760,19,9920,37,10080,65.3C10240,93,10400,131,10560,130.7C10720,131,10880,93,11040,102.7C11200,112,11360,168,11440,196L11520,224L11520,280L11440,280C11360,280,11200,280,11040,280C10880,280,10720,280,10560,280C10400,280,10240,280,10080,280C9920,280,9760,280,9600,280C9440,280,9280,280,9120,280C8960,280,8800,280,8640,280C8480,280,8320,280,8160,280C8000,280,7840,280,7680,280C7520,280,7360,280,7200,280C7040,280,6880,280,6720,280C6560,280,6400,280,6240,280C6080,280,5920,280,5760,280C5600,280,5440,280,5280,280C5120,280,4960,280,4800,280C4640,280,4480,280,4320,280C4160,280,4000,280,3840,280C3680,280,3520,280,3360,280C3200,280,3040,280,2880,280C2720,280,2560,280,2400,280C2240,280,2080,280,1920,280C1760,280,1600,280,1440,280C1280,280,1120,280,960,280C800,280,640,280,480,280C320,280,160,280,80,280L0,280Z"/></svg>