<?xml version="1.0" standalone="no"?>
<svg xmlns:xlink="http://www.w3.org/1999/xlink" id="wave" style="transform:rotate(0deg); transition: 0.3s" viewBox="0 0 1440 230" version="1.1" xmlns="http://www.w3.org/2000/svg"><defs><linearGradient id="sw-gradient-0" x1="0" x2="0" y1="1" y2="0"><stop stop-color="rgba(89, 111, 7, 1)" offset="0%"/><stop stop-color="rgba(147, 173, 24, 1)" offset="100%"/></linearGradient></defs><path style="transform:translate(0, 0px); opacity:1" fill="url(#sw-gradient-0)" d="M0,69L34.3,61.3C68.6,54,137,38,206,34.5C274.3,31,343,38,411,69C480,100,549,153,617,153.3C685.7,153,754,100,823,80.5C891.4,61,960,77,1029,69C1097.1,61,1166,31,1234,38.3C1302.9,46,1371,92,1440,126.5C1508.6,161,1577,184,1646,180.2C1714.3,176,1783,146,1851,130.3C1920,115,1989,115,2057,103.5C2125.7,92,2194,69,2263,76.7C2331.4,84,2400,123,2469,126.5C2537.1,130,2606,100,2674,72.8C2742.9,46,2811,23,2880,30.7C2948.6,38,3017,77,3086,92C3154.3,107,3223,100,3291,103.5C3360,107,3429,123,3497,126.5C3565.7,130,3634,123,3703,126.5C3771.4,130,3840,146,3909,126.5C3977.1,107,4046,54,4114,34.5C4182.9,15,4251,31,4320,53.7C4388.6,77,4457,107,4526,107.3C4594.3,107,4663,77,4731,84.3C4800,92,4869,138,4903,161L4937.1,184L4937.1,230L4902.9,230C4868.6,230,4800,230,4731,230C4662.9,230,4594,230,4526,230C4457.1,230,4389,230,4320,230C4251.4,230,4183,230,4114,230C4045.7,230,3977,230,3909,230C3840,230,3771,230,3703,230C3634.3,230,3566,230,3497,230C3428.6,230,3360,230,3291,230C3222.9,230,3154,230,3086,230C3017.1,230,2949,230,2880,230C2811.4,230,2743,230,2674,230C2605.7,230,2537,230,2469,230C2400,230,2331,230,2263,230C2194.3,230,2126,230,2057,230C1988.6,230,1920,230,1851,230C1782.9,230,1714,230,1646,230C1577.1,230,1509,230,1440,230C1371.4,230,1303,230,1234,230C1165.7,230,1097,230,1029,230C960,230,891,230,823,230C754.3,230,686,230,617,230C548.6,230,480,230,411,230C342.9,230,274,230,206,230C137.1,230,69,230,34,230L0,230Z"/></svg>