<?xml version="1.0" standalone="no"?>
<svg xmlns:xlink="http://www.w3.org/1999/xlink" id="wave" style="transform:rotate(0deg); transition: 0.3s" viewBox="0 0 1440 100" version="1.1" xmlns="http://www.w3.org/2000/svg"><defs><linearGradient id="sw-gradient-0" x1="0" x2="0" y1="1" y2="0"><stop stop-color="rgba(125.443, 150.624, 17.056, 1)" offset="0%"/><stop stop-color="rgba(231.513, 253.079, 138.685, 1)" offset="100%"/></linearGradient></defs><path style="transform:translate(0, 0px); opacity:1" fill="url(#sw-gradient-0)" d="M0,70L26.7,68.3C53.3,67,107,63,160,66.7C213.3,70,267,80,320,70C373.3,60,427,30,480,16.7C533.3,3,587,7,640,8.3C693.3,10,747,10,800,10C853.3,10,907,10,960,15C1013.3,20,1067,30,1120,33.3C1173.3,37,1227,33,1280,40C1333.3,47,1387,63,1440,60C1493.3,57,1547,33,1600,21.7C1653.3,10,1707,10,1760,18.3C1813.3,27,1867,43,1920,55C1973.3,67,2027,73,2080,65C2133.3,57,2187,33,2240,28.3C2293.3,23,2347,37,2400,41.7C2453.3,47,2507,43,2560,50C2613.3,57,2667,73,2720,80C2773.3,87,2827,83,2880,71.7C2933.3,60,2987,40,3040,31.7C3093.3,23,3147,27,3200,25C3253.3,23,3307,17,3360,18.3C3413.3,20,3467,30,3520,38.3C3573.3,47,3627,53,3680,60C3733.3,67,3787,73,3813,76.7L3840,80L3840,100L3813.3,100C3786.7,100,3733,100,3680,100C3626.7,100,3573,100,3520,100C3466.7,100,3413,100,3360,100C3306.7,100,3253,100,3200,100C3146.7,100,3093,100,3040,100C2986.7,100,2933,100,2880,100C2826.7,100,2773,100,2720,100C2666.7,100,2613,100,2560,100C2506.7,100,2453,100,2400,100C2346.7,100,2293,100,2240,100C2186.7,100,2133,100,2080,100C2026.7,100,1973,100,1920,100C1866.7,100,1813,100,1760,100C1706.7,100,1653,100,1600,100C1546.7,100,1493,100,1440,100C1386.7,100,1333,100,1280,100C1226.7,100,1173,100,1120,100C1066.7,100,1013,100,960,100C906.7,100,853,100,800,100C746.7,100,693,100,640,100C586.7,100,533,100,480,100C426.7,100,373,100,320,100C266.7,100,213,100,160,100C106.7,100,53,100,27,100L0,100Z"/></svg>